<svg width="0" height="0" style="position:absolute"><symbol viewBox="0 0 32 32" id="camera"><path d="M16 10c-4.42 0-8 3.582-8 8s3.58 8 8 8c4.418 0 8-3.58 8-8s-3.582-8-8-8zm4.555 11.906c-2.156 2.516-5.943 2.807-8.46.65-2.516-2.156-2.806-5.944-.65-8.46 2.156-2.516 5.944-2.806 8.46-.65 2.515 2.156 2.806 5.945.65 8.46zM16 14c.276 0 .5.225.5.5s-.224.5-.5.5c-1.657 0-3 1.344-3 3v.002c0 .275-.224.5-.5.5s-.5-.225-.5-.5V18c0-2.208 1.79-4 4-4zm13.492-4.958l-4.334-.723-1.373-3.435C23.325 3.74 22.232 3 21 3H11c-1.232 0-2.326.74-2.786 1.886L6.842 8.32 2.51 9.04C1.054 9.282 0 10.527 0 12v15c0 1.654 1.346 3 3 3h26c1.654 0 3-1.346 3-3V12c0-1.473-1.055-2.717-2.508-2.958zM30 27c0 .553-.447 1-1 1H3c-.553 0-1-.447-1-1V12c0-.49.354-.906.836-.986l5.444-.907 1.79-4.478c.154-.38.52-.63.93-.63h10c.408 0 .775.25.928.63l1.79 4.477 5.446.907c.482.08.836.497.836.986v15z"/></symbol><symbol viewBox="0 0 24 24" id="down_arrow"><path d="M7.406 7.828L12 12.422l4.594-4.594L18 9.234l-6 6-6-6z"/></symbol><symbol viewBox="0 0 24 24" id="fb"><path d="M13 10h3v3h-3v7h-3v-7H7v-3h3V8.745c0-1.19.374-2.69 1.118-3.512C11.862 4.41 12.79 4 13.904 4H16v3h-2.1c-.498 0-.9.402-.9.9V10z"/></symbol><symbol viewBox="0 0 24 24" id="heart"><path d="M12 10.375C12 7.96 10.04 6 7.625 6S3.25 7.96 3.25 10.375c0 1.127.16 2.784 1.75 4.375L12 20s5.41-3.66 7-5.25 1.75-3.248 1.75-4.375C20.75 7.96 18.79 6 16.375 6S12 7.96 12 10.375"/></symbol><symbol viewBox="0 0 24 24" id="instagram"><path d="M18 3H6C4.3 3 3 4.3 3 6v12c0 1.7 1.3 3 3 3h12c1.7 0 3-1.3 3-3V6c0-1.7-1.3-3-3-3zm-6 6c1.7 0 3 1.3 3 3s-1.3 3-3 3-3-1.3-3-3 1.3-3 3-3zm3.8-2c0-.7.6-1.2 1.2-1.2s1.2.6 1.2 1.2-.5 1.2-1.2 1.2-1.2-.5-1.2-1.2zM18 19H6c-.6 0-1-.4-1-1v-6h2c0 2.8 2.2 5 5 5s5-2.2 5-5h2v6c0 .6-.4 1-1 1z"/></symbol><symbol viewBox="0 0 24 24" id="link"><path d="M17.5 6c.282 0 .562.105.777.32.43.43.43 1.127 0 1.557L16.557 9.6l.307.308c.585.584.906 1.362.906 2.192s-.32 1.607-.906 2.19l-4.172 4.173c-.584.584-1.36.906-2.19.906s-1.608-.323-2.192-.907l-.31-.31-1.723 1.724c-.215.215-.495.322-.777.322s-.562-.108-.777-.323c-.43-.43-.43-1.126 0-1.557l1.72-1.72-.308-.31c-.583-.583-.905-1.36-.905-2.19s.32-1.608.905-2.192l4.173-4.173c.584-.584 1.387-.875 2.19-.875s1.608.29 2.192.875l.31.308 1.723-1.723c.215-.215.495-.32.777-.32m0-2c-.828 0-1.605.32-2.19.907l-.493.49c-.707-.35-1.504-.538-2.316-.538-1.362 0-2.676.532-3.604 1.46l-4.172 4.173c-.964.962-1.494 2.24-1.494 3.607 0 .822.192 1.616.558 2.327l-.48.48c-.585.585-.908 1.364-.908 2.193 0 .827.322 1.605.908 2.19.584.587 1.363.91 2.19.91s1.606-.323 2.192-.91l.48-.48c.71.366 1.504.56 2.328.56 1.363 0 2.645-.53 3.605-1.492l4.172-4.172c.963-.962 1.492-2.242 1.492-3.605 0-.823-.192-1.616-.558-2.327l.478-.48c.59-.587.912-1.366.912-2.193 0-.828-.322-1.606-.908-2.192-.587-.588-1.364-.91-2.192-.91zm-6.1 7.168c.017.535.233 1.036.613 1.416.38.38.88.598 1.416.614l-1.833 1.83c-.017-.533-.234-1.034-.613-1.414-.38-.38-.88-.597-1.416-.614l1.832-1.832m1.1-2.14c-.242 0-.468.095-.637.263L7.69 13.464c-.167.168-.26.395-.26.637 0 .24.093.467.26.635l.31.308.723-.723c.215-.215.495-.32.777-.32s.562.105.777.32c.43.43.43 1.127 0 1.557l-.72.723.308.308c.168.168.4.253.636.253s.47-.083.638-.252l4.172-4.173c.168-.168.26-.395.26-.635 0-.242-.092-.47-.26-.637l-.31-.31-.723.724c-.215.215-.495.322-.777.322s-.562-.108-.777-.323c-.43-.43-.43-1.126 0-1.557l.72-.72-.307-.31c-.17-.167-.395-.26-.636-.26z"/></symbol><symbol viewBox="0 0 32 32" id="phone"><path d="M24 0H8C6.342 0 5 1.343 5 3v26c0 1.658 1.343 3 3 3h16c1.656 0 3-1.344 3-3V3c0-1.658-1.344-3-3-3zm1 29c0 .55-.45 1-1 1H8c-.552 0-1-.447-1-1v-2.004h18V29zm0-3.004H7V6h18v19.996zM25 5H7V3c0-.552.448-1 1-1h16c.55 0 1 .448 1 1v2zm-7-1.5c0 .276-.225.5-.5.5h-3c-.277 0-.5-.224-.5-.5 0-.277.223-.5.5-.5h3c.275 0 .5.223.5.5zm-1 24.996c0 .275-.225.5-.5.5h-1c-.276 0-.5-.225-.5-.5 0-.277.224-.5.5-.5h1c.275 0 .5.223.5.5z"/></symbol><symbol viewBox="0 0 24 24" id="play"><path d="M12 20.016q3.28 0 5.648-2.367T20.015 12t-2.367-5.647T12 3.986 6.352 6.353 3.985 12t2.367 5.65T12 20.015zm0-18q4.125 0 7.055 2.93T21.985 12t-2.93 7.056T12 21.986t-7.055-2.93T2.015 12t2.93-7.054T12 2.016zM9.984 16.5v-9l6 4.5z"/></symbol><symbol viewBox="0 0 18 18" id="search"><path d="M7.012 3c2.193 0 3.977 1.794 3.977 4 0 .83-.256 1.63-.738 2.312l-.392.553-.55.393c-.678.485-1.473.742-2.298.742-2.193 0-3.977-1.794-3.977-4S4.82 3 7.012 3zm0-2C3.717 1 1.046 3.686 1.046 7s2.67 6 5.966 6c1.288 0 2.477-.414 3.45-1.112l4.792 4.82c.195.195.45.292.705.292s.51-.098.703-.293c.39-.39.39-1.025 0-1.416l-4.79-4.818c.693-.98 1.104-2.177 1.104-3.47 0-3.315-2.67-6-5.965-6z"/></symbol><symbol viewBox="0 0 24 24" id="twitter"><path d="M18.89 7.012c.808-.496 1.343-1.173 1.605-2.034-.786.417-1.57.703-2.35.86-.704-.755-1.594-1.14-2.66-1.14-1.044 0-1.925.367-2.644 1.08-.714.716-1.075 1.587-1.075 2.604 0 .31.04.585.117.82C8.806 9.095 6.26 7.82 4.254 5.363c-.34.6-.51 1.213-.51 1.846 0 1.3.55 2.332 1.645 3.09-.626-.054-1.177-.212-1.646-.47 0 .928.273 1.704.82 2.387.55.676 1.254 1.107 2.115 1.29-.313.08-.642.12-.98.12-.312 0-.533-.027-.664-.084.23.757.664 1.37 1.29 1.84.626.473 1.345.722 2.153.744-1.333 1.045-2.856 1.562-4.58 1.562-.42 0-.72-.007-.9-.04 1.696 1.103 3.585 1.65 5.675 1.65 2.14 0 4.03-.542 5.674-1.626 1.644-1.078 2.858-2.408 3.638-3.974.784-1.564 1.172-3.192 1.172-4.892V8.34c.758-.57 1.37-1.212 1.84-1.92-.68.292-1.383.49-2.11.592z"/></symbol><symbol viewBox="0 0 32 32" id="video"><path d="M30 6h-.887c-.525 0-1.03.207-1.404.576L25 9.248V8c0-1.657-1.344-3-3-3H3C1.346 5 0 6.345 0 8v16c0 1.656 1.343 3 3 3h19c1.656 0 3-1.344 3-3v-1.22l2.71 2.67c.374.37.878.577 1.403.577H30c1.104 0 2-.895 2-2V8c0-1.105-.896-2-2-2zM3 25c-.552 0-1-.45-1-1V8c0-.553.447-1 1-1h19c.55 0 1 .448 1 1v16c0 .55-.45 1-1 1H3zm27-.973h-1l-4-4V20l-1-1v-6l5-5h1v16.027z"/></symbol><symbol viewBox="0 0 24 24" id="vine"><path d="M18.92 8.776c-.33 1.93-1.21 3.758-2.65 5.48-1.435 1.725-2.71 2.957-3.818 3.695-.7.332-1.293.34-1.786.035-.493-.31-.883-.75-1.17-1.325-.164-.328-.564-1.57-1.2-3.728-.637-2.155-1.018-3.315-1.14-3.48-.083-.162-.288-.183-.616-.06-.33.122-.555.226-.678.31-.123.08-.226.164-.308.244L5 9.21l.616-.74c.452-.493 1.026-1.008 1.724-1.54.7-.535 1.314-.863 1.848-.988.37-.08.68-.028.924.156.247.184.452.484.616.894.165.41.29.81.37 1.2.082.39.164.853.247 1.386.08.534.164.945.246 1.232.452 1.93.822 2.896 1.11 2.896.41 0 1.067-.863 1.97-2.59.41-.78.433-1.426.063-1.94-.37-.513-.943-.523-1.724-.03.122-.78.47-1.456 1.045-2.03 1.026-1.11 2.157-1.522 3.388-1.235 1.273.248 1.765 1.214 1.477 2.896z"/></symbol></svg>